<?xml version="1.0" encoding="UTF-8" standalone="no"?>
<!-- Created with Inkscape (http://www.inkscape.org/) -->

<svg
   width="29.663801mm"
   height="25.91272mm"
   viewBox="0 0 29.663801 25.91272"
   version="1.1"
   id="svg1"
   xml:space="preserve"
   inkscape:version="1.4.2 (ebf0e940, 2025-05-08)"
   sodipodi:docname="circle.svg"
   xmlns:inkscape="http://www.inkscape.org/namespaces/inkscape"
   xmlns:sodipodi="http://sodipodi.sourceforge.net/DTD/sodipodi-0.dtd"
   xmlns:xlink="http://www.w3.org/1999/xlink"
   xmlns="http://www.w3.org/2000/svg"
   xmlns:svg="http://www.w3.org/2000/svg"><sodipodi:namedview
     id="namedview1"
     pagecolor="#ffffff"
     bordercolor="#000000"
     borderopacity="0.25"
     inkscape:showpageshadow="2"
     inkscape:pageopacity="0.0"
     inkscape:pagecheckerboard="0"
     inkscape:deskcolor="#d1d1d1"
     inkscape:document-units="mm"
     inkscape:zoom="3.8096642"
     inkscape:cx="34.386233"
     inkscape:cy="46.198298"
     inkscape:window-width="1728"
     inkscape:window-height="1051"
     inkscape:window-x="0"
     inkscape:window-y="38"
     inkscape:window-maximized="1"
     inkscape:current-layer="layer1" /><defs
     id="defs1" /><g
     inkscape:label="Layer 1"
     inkscape:groupmode="layer"
     id="layer1"
     transform="translate(-36.85756,-129.34336)"><text
       xml:space="preserve"
       style="font-size:3.52778px;line-height:1.12;font-family:'EB Garamond';-inkscape-font-specification:'EB Garamond';text-align:end;text-decoration-color:#000000;letter-spacing:-0.0846667px;writing-mode:lr-tb;direction:ltr;text-anchor:end;fill:#000000;stroke:none;stroke-width:1.226;stroke-linecap:round;stroke-miterlimit:1000;stroke-dashoffset:152.492;paint-order:fill markers stroke"
       id="text1"><textPath
         xlink:href="#path1"
         startOffset="100%"
         id="textPath1"
         style="font-style:normal;font-variant:normal;font-weight:normal;font-stretch:normal;font-size:3.52778px;font-family:'Libre Baskerville';-inkscape-font-specification:'Libre Baskerville';letter-spacing:-0.0846667px;fill:#ffdd99;fill-opacity:1;stroke:none;stroke-width:1.226">How will we research in the future?</textPath></text><path
       id="path1"
       style="fill:none;stroke:none;stroke-width:1.226;stroke-linecap:round;stroke-miterlimit:1000;stroke-dashoffset:152.492;paint-order:fill markers stroke"
       d="m 58.37208,153.12894 c -5.459764,3.74463 -12.921398,2.35425 -16.666031,-3.10552 -3.744634,-5.45976 -2.354249,-12.92139 3.105511,-16.66604 5.459764,-3.74463 12.921398,-2.35425 16.666031,3.10552 3.744634,5.45976 2.354249,12.92139 -3.105511,16.66604 z"
       sodipodi:nodetypes="sssss" /><g
       id="g2"
       transform="translate(-0.49174749)"><path
         style="fill:#ffdd99;stroke-width:0.426973"
         d="m 49.584267,146.49451 c -0.03954,-0.0477 -0.03339,-0.11463 0.03394,-0.37082 0.220835,-0.83984 0.459722,-1.44137 0.774529,-1.9503 0.203808,-0.32947 0.222415,-0.34791 0.429301,-0.42532 0.118942,-0.0445 0.310179,-0.10543 0.424966,-0.13541 0.276858,-0.0723 0.971407,-0.1316 1.210141,-0.10333 0.24878,0.0295 0.258156,-0.0475 0.01093,-0.0897 -0.410868,-0.0702 -1.298502,-0.0177 -1.597994,0.0944 -0.06444,0.0241 0.157561,-0.2671 0.389408,-0.51083 0.293856,-0.30894 0.854318,-0.4529 1.615103,-0.41485 0.268703,0.0135 0.448843,0.01 0.416619,-0.009 -0.205604,-0.11753 -0.909376,-0.17252 -1.362433,-0.10646 l -0.208149,0.0304 0.340609,-0.34339 c 0.421534,-0.42496 0.621933,-0.5109 1.375349,-0.58978 0.154778,-0.0162 0.226971,-0.0381 0.203333,-0.0618 -0.04494,-0.0449 -0.659037,-0.0549 -0.838977,-0.0135 -0.149444,0.0343 -0.170118,0.0789 0.175738,-0.37922 0.219226,-0.2904 0.373286,-0.54732 0.326413,-0.54437 -0.01695,8.5e-4 -0.124471,0.12056 -0.238951,0.26554 -0.114485,0.14498 -0.29942,0.35273 -0.410971,0.46166 l -0.202816,0.19807 0.02233,-0.20815 c 0.06543,-0.60947 0.06977,-0.69914 0.03207,-0.66229 -0.06706,0.0655 -0.162361,0.40067 -0.21484,0.75552 l -0.05058,0.34199 -0.391812,0.37533 -0.391808,0.37533 -0.01089,-0.37048 c -0.0066,-0.22553 0.01268,-0.49621 0.04933,-0.69184 0.09243,-0.49324 0.01593,-0.45373 -0.134458,0.0694 -0.05224,0.18173 -0.08774,0.43951 -0.101107,0.7342 l -0.02058,0.45415 -0.19455,0.20814 c -0.107004,0.11448 -0.256048,0.28117 -0.331208,0.37041 l -0.136648,0.16227 -0.02652,-0.38934 c -0.02357,-0.3459 0.0097,-0.89244 0.08015,-1.31654 0.03971,-0.23905 -0.0565,-0.0736 -0.143848,0.24736 -0.06749,0.24802 -0.08424,0.42834 -0.09457,1.01822 l -0.01255,0.71682 -0.139782,0.21039 -0.139787,0.21039 -0.105407,-0.22707 c -0.47818,-1.03011 -0.206834,-2.23179 0.662846,-2.93548 0.294155,-0.23801 0.775486,-0.47078 1.518658,-0.73441 0.727332,-0.25802 1.30387,-0.53074 1.525085,-0.72142 0.08946,-0.0771 0.174436,-0.12842 0.188837,-0.11402 0.04495,0.0449 0.0776,0.61438 0.0804,1.40201 0.0061,1.71751 -0.168987,2.45036 -0.715842,2.99636 -0.393912,0.3933 -0.867481,0.61556 -1.472391,0.69107 -0.323228,0.0403 -0.823119,0.008 -1.098474,-0.0722 -0.07147,-0.0207 -0.133464,-0.0336 -0.137759,-0.0288 -0.0043,0.005 -0.06771,0.12802 -0.140931,0.27373 -0.173116,0.34448 -0.306025,0.72709 -0.476084,1.37053 -0.117763,0.44558 -0.149368,0.52338 -0.216497,0.53302 -0.04323,0.006 -0.100321,-0.0149 -0.126866,-0.0469 z"
         id="path69" /><text
         xml:space="preserve"
         style="font-style:normal;font-variant:normal;font-weight:normal;font-stretch:normal;font-size:3.00369px;line-height:1.12;font-family:'Libre Baskerville';-inkscape-font-specification:'Libre Baskerville';text-align:end;text-decoration-color:#000000;letter-spacing:-0.0720887px;writing-mode:lr-tb;direction:ltr;text-anchor:end;fill:#ffdd99;fill-opacity:1;stroke:none;stroke-width:1.04387;stroke-linecap:round;stroke-miterlimit:1000;stroke-dashoffset:152.492;paint-order:fill markers stroke"
         x="54.413757"
         y="154.06335"
         id="text2"><tspan
           sodipodi:role="line"
           id="tspan1"
           style="font-weight:bold;fill:#ffdd99;fill-opacity:1;stroke-width:1.04387"
           x="54.341667"
           y="154.06335">fios</tspan></text></g></g></svg>
