<?xml version="1.0" encoding="UTF-8" standalone="no"?>
<!-- Created with Inkscape (http://www.inkscape.org/) -->

<svg
   width="20.592022mm"
   height="20.604313mm"
   viewBox="0 0 20.592021 20.604313"
   version="1.1"
   id="svg1"
   sodipodi:docname="favicon.svg"
   inkscape:version="1.4.2 (ebf0e940, 2025-05-08)"
   xmlns:inkscape="http://www.inkscape.org/namespaces/inkscape"
   xmlns:sodipodi="http://sodipodi.sourceforge.net/DTD/sodipodi-0.dtd"
   xmlns="http://www.w3.org/2000/svg"
   xmlns:svg="http://www.w3.org/2000/svg">
  <sodipodi:namedview
     id="namedview1"
     pagecolor="#ffffff"
     bordercolor="#000000"
     borderopacity="0.25"
     inkscape:showpageshadow="2"
     inkscape:pageopacity="0.0"
     inkscape:pagecheckerboard="0"
     inkscape:deskcolor="#d1d1d1"
     inkscape:document-units="mm"
     inkscape:zoom="4.786574"
     inkscape:cx="-1.5668827"
     inkscape:cy="29.87523"
     inkscape:window-width="1728"
     inkscape:window-height="1051"
     inkscape:window-x="0"
     inkscape:window-y="38"
     inkscape:window-maximized="1"
     inkscape:current-layer="svg1" />
  <defs
     id="defs1" />
  <path
     id="path1"
     style="fill:#050601;stroke-width:1.226;stroke-linecap:round;stroke-linejoin:round;stroke-miterlimit:1000;stroke-dashoffset:152.492;paint-order:fill markers stroke;fill-opacity:1"
     d="M 20.592022,10.296011 A 10.296011,10.296011 0 0 1 10.296011,20.592022 10.296011,10.296011 0 0 1 0,10.296011 10.296011,10.296011 0 0 1 10.296011,0 10.296011,10.296011 0 0 1 20.592022,10.296011 Z" />
  <path
     style="fill:#ffdd99;stroke-width:1.10583;fill-opacity:1"
     d="m 4.6348713,18.894089 c 0,0 0.9730016,-2.610514 1.5962562,-3.618076 0.5278455,-0.853322 0.5760361,-0.901072 1.1118533,-1.101548 0.3080502,-0.11526 0.8033388,-0.273072 1.1006293,-0.350712 0.71704,-0.187239 2.5158659,-0.340827 3.1341669,-0.267599 0.644321,0.0763 0.668605,-0.12299 0.02831,-0.232346 -1.064114,-0.181742 -3.3630176,-0.04589 -4.1386775,0.244543 -0.1668914,0.06248 0.4080721,-0.691772 1.0085359,-1.323033 0.7610631,-0.800121 2.2126156,-1.17295 4.1829886,-1.07441 0.695919,0.03483 1.162467,0.02499 1.07901,-0.02267 -0.5325,-0.304378 -2.355212,-0.446798 -3.528593,-0.275715 l -0.5390907,0.07862 0.8821517,-0.889339 c 1.091738,-1.1006293 1.610758,-1.323199 3.562044,-1.5275005 0.400862,-0.041911 0.587835,-0.09875 0.526617,-0.1600021 -0.116389,-0.1163882 -1.706855,-0.1420876 -2.172883,-0.035055 -0.387051,0.088909 -0.440595,0.20439 0.455147,-0.982162 0.567776,-0.7521169 0.96678,-1.4175259 0.845382,-1.4098736 -0.0439,0.00221 -0.32237,0.3122412 -0.618865,0.6877246 -0.296505,0.3754835 -0.775472,0.9135344 -1.06438,1.195675 l -0.525278,0.5129709 0.05783,-0.5390905 c 0.169446,-1.578479 0.180692,-1.8107136 0.08305,-1.7152808 -0.17367,0.1696891 -0.420502,1.0377077 -0.556419,1.9567491 L 11.013662,8.9316863 9.9989001,9.9037632 8.9841494,10.87584 8.9559508,9.9163254 C 8.9388105,9.3322056 8.9887938,8.6311779 9.0837069,8.1245103 9.3230852,6.8470594 9.1249543,6.9493815 8.7354711,8.304384 8.6001732,8.7750349 8.5082348,9.4426777 8.4736113,10.205897 l -0.053301,1.176202 -0.5038699,0.53909 c -0.277131,0.296494 -0.6631419,0.728198 -0.8578006,0.959327 L 6.7047311,13.300763 6.6360593,12.292426 C 6.5750176,11.396574 6.6612721,9.9810715 6.843634,8.8826761 6.9464759,8.263568 6.6972999,8.6920094 6.471081,9.5233367 6.296294,10.165689 6.2529125,10.632691 6.2261515,12.160424 L 6.1936402,14.01694 5.8316147,14.561825 5.4695781,15.106722 5.1965827,14.518621 C 3.9581343,11.850737 4.6608981,8.7384763 6.9133011,6.9159745 7.6751382,6.2995425 8.9217476,5.6966901 10.846505,5.0139085 c 1.883731,-0.6682399 3.376918,-1.3745756 3.949847,-1.8684267 0.231693,-0.1997123 0.451774,-0.3325995 0.489074,-0.2953 0.11641,0.1164104 0.200984,1.5912071 0.208227,3.6310923 0.01581,4.4482209 -0.437664,6.3462499 -1.853974,7.7603369 -1.020202,1.01861 -2.246708,1.594259 -3.8133763,1.789814 -0.8371329,0.1045 -2.1318126,0.01946 -2.8449601,-0.186874 -0.1851043,-0.05352 -0.3456593,-0.08714 -0.3567839,-0.07453 -0.011169,0.01261 -0.175362,0.331583 -0.3650002,0.708946 C 5.8850232,17.22425 5.2340634,19.261883 5.2340634,19.261883 4.9599106,19.103783 4.865456,19.05061 4.6348713,18.894089 Z"
     id="path69"
     sodipodi:nodetypes="cssccsccccccsccccccscccccccccccccccccccccccscsscccccccc" />
</svg>
