<?xml version="1.0" encoding="UTF-8" standalone="no"?>
<!-- Created with Inkscape (http://www.inkscape.org/) -->

<svg
   width="10.327415mm"
   height="16.790976mm"
   viewBox="0 0 10.327415 16.790976"
   version="1.1"
   id="svg1"
   xmlns="http://www.w3.org/2000/svg"
   xmlns:svg="http://www.w3.org/2000/svg">
  <defs
     id="defs1" />
  <g
     id="layer1"
     transform="translate(-68.262504,-162.18958)">
    <path
       style="fill:#ffdd99"
       d="m 68.31995,178.86815 c -0.0926,-0.1116 -0.0782,-0.26846 0.0795,-0.86848 0.51721,-1.96697 1.0767,-3.3758 1.814,-4.56773 0.47733,-0.77166 0.52091,-0.81484 1.00545,-0.99613 0.27857,-0.10423 0.72646,-0.24694 0.9953,-0.31715 0.64842,-0.16932 2.2751,-0.30821 2.83423,-0.24199 0.58266,0.069 0.60462,-0.11122 0.0256,-0.21011 -0.96228,-0.16435 -3.04118,-0.0415 -3.74261,0.22114 -0.15092,0.0565 0.36902,-0.62557 0.91202,-1.19642 0.68823,-0.72355 2.00087,-1.0607 3.78268,-0.97159 0.62932,0.0315 1.05122,0.0226 0.97575,-0.0205 -0.48154,-0.27525 -2.12982,-0.40404 -3.19091,-0.24933 l -0.4875,0.0711 0.79773,-0.80423 c 0.98726,-0.9953 1.45661,-1.19657 3.22116,-1.38132 0.3625,-0.0379 0.53158,-0.0893 0.47622,-0.14469 -0.10525,-0.10525 -1.54351,-0.12849 -1.96494,-0.0317 -0.35001,0.0804 -0.39843,0.18483 0.41159,-0.88817 0.51344,-0.68014 0.87426,-1.28187 0.76448,-1.27495 -0.0397,0.002 -0.29152,0.28236 -0.55964,0.62191 -0.26813,0.33955 -0.70126,0.82611 -0.96252,1.08125 l -0.47501,0.46388 0.0523,-0.4875 c 0.15323,-1.42742 0.1634,-1.63743 0.0751,-1.55113 -0.15705,0.15345 -0.38026,0.9384 -0.50317,1.76949 l -0.11846,0.80096 -0.91765,0.87905 -0.91764,0.87905 -0.0255,-0.86769 c -0.0155,-0.52822 0.0297,-1.16216 0.11553,-1.62034 0.21647,-1.1552 0.0373,-1.06267 -0.31491,0.16266 -0.12235,0.42561 -0.20549,1.02936 -0.2368,1.71954 l -0.0482,1.06364 -0.45565,0.4875 c -0.25061,0.26812 -0.59968,0.65851 -0.77571,0.86752 l -0.32004,0.38003 -0.0621,-0.91184 c -0.0552,-0.81012 0.0228,-2.09016 0.18771,-3.08344 0.093,-0.55986 -0.13233,-0.17242 -0.3369,0.57935 -0.15806,0.58088 -0.19729,1.00319 -0.22149,2.38472 l -0.0294,1.67885 -0.32738,0.49274 -0.32739,0.49275 -0.24687,-0.53182 c -1.11993,-2.41257 -0.48442,-5.22699 1.55243,-6.87508 0.68893,-0.55744 1.81624,-1.1026 3.5568,-1.72004 1.70346,-0.60429 3.05375,-1.24303 3.57185,-1.68962 0.20952,-0.1806 0.40854,-0.30077 0.44227,-0.26704 0.10527,0.10527 0.18175,1.43893 0.1883,3.2836 0.0143,4.02253 -0.39578,5.73892 -1.67655,7.01768 -0.92257,0.92113 -2.0317,1.44169 -3.44844,1.61853 -0.75702,0.0945 -1.9278,0.0176 -2.5727,-0.16899 -0.16739,-0.0484 -0.31258,-0.0788 -0.32264,-0.0674 -0.0101,0.0114 -0.15858,0.29985 -0.33007,0.6411 -0.40545,0.8068 -0.71673,1.7029 -1.11502,3.20987 -0.27581,1.04358 -0.34983,1.22581 -0.50705,1.24838 -0.10126,0.0145 -0.23496,-0.0348 -0.29713,-0.10975 z"
       id="path69" />
  </g>
</svg>
