<?xml version="1.0" encoding="UTF-8" standalone="no"?>
<!-- Created with Inkscape (http://www.inkscape.org/) -->

<svg
   width="13.159589mm"
   height="13.76502mm"
   viewBox="0 0 13.159589 13.76502"
   version="1.1"
   id="svg1"
   xmlns="http://www.w3.org/2000/svg"
   xmlns:svg="http://www.w3.org/2000/svg">
  <defs
     id="defs1" />
  <g
     id="layer1"
     transform="translate(-134.4086,-108.21458)">
    <path
       id="path57"
       style="fill:#ffdd99"
       d="m 140.34355,108.21458 -0.31419,0.30334 c -0.92296,0.89177 -2.07481,3.26967 -2.07481,4.28295 0,0.25253 -0.0375,0.22744 -0.87384,-0.59428 -0.48067,-0.47225 -0.91469,-0.85887 -0.96429,-0.85887 -0.16068,0 -0.28183,0.2229 -0.43666,0.80409 -0.19124,0.71778 -0.21675,2.62366 -0.0419,3.12384 0.065,0.18608 0.0973,0.36002 0.0713,0.38602 -0.026,0.026 -0.18361,-0.0567 -0.34985,-0.18345 -0.36,-0.27459 -0.55663,-0.29147 -0.68109,-0.0589 -0.11988,0.22426 -0.11758,1.20204 0.005,1.79627 0.10034,0.48776 0.66815,1.74244 0.94258,2.08308 l 0.15761,0.19585 0.77566,-0.75396 c 0.74397,-0.72329 0.77567,-0.7703 0.77567,-1.14566 0,-0.66455 -0.26468,-2.32974 -0.53951,-3.39566 -0.14411,-0.55886 -0.24217,-1.03578 -0.21807,-1.05988 0.19088,-0.19088 1.20044,3.25248 1.20044,4.09432 0,0.12641 0.0306,0.22996 0.0682,0.22996 0.0376,0 0.41632,-0.34924 0.84129,-0.77618 l 0.77256,-0.77618 0.14056,-0.88573 c 0.0773,-0.48712 0.16299,-1.6559 0.19069,-2.59726 0.0277,-0.94135 0.0831,-1.67854 0.1235,-1.63814 0.1502,0.1502 0.28494,2.52293 0.20154,3.54913 -0.0444,0.54844 -0.0665,0.99684 -0.0491,0.99684 0.0174,0 0.67625,-0.61225 1.46399,-1.36064 1.59143,-1.51196 2.42904,-2.27325 2.50114,-2.27325 0.12386,0 -0.23486,0.41155 -1.87792,2.15388 l -1.77198,1.87895 1.02422,-0.0806 c 1.07278,-0.0848 3.41817,0.0458 3.57136,0.19895 0.0462,0.0461 -0.64999,0.0996 -1.6769,0.12868 -0.96581,0.0273 -2.13516,0.11405 -2.59829,0.19275 l -0.84181,0.14314 -0.77566,0.7705 c -0.42656,0.42379 -0.77567,0.80111 -0.77567,0.83871 0,0.0375 0.12494,0.0682 0.27751,0.0682 0.74285,0 3.71454,0.85583 4.01732,1.15704 0.12434,0.12369 -0.007,0.10628 -0.70538,-0.0941 -0.98968,-0.28383 -2.37395,-0.5266 -3.30471,-0.5798 l -0.86093,-0.0491 -1.70739,1.71153 c -1.45278,1.45638 -1.66712,1.67764 -1.60869,1.83864 1.13038,-0.56753 2.27584,-1.67948 2.27584,-1.67948 l 0.39635,0.22169 c 0.67736,0.37858 1.40266,0.58469 2.24483,0.63769 0.82269,0.0518 1.19114,-0.033 1.19114,-0.2744 0,-0.0646 -0.10155,-0.26747 -0.22583,-0.45062 -0.12432,-0.18314 -0.20793,-0.35069 -0.18603,-0.37259 0.0219,-0.0218 0.21319,0.0106 0.4253,0.0724 0.50641,0.1475 2.29313,0.14345 2.91145,-0.006 0.58203,-0.14086 0.97513,-0.32724 0.97513,-0.46302 0,-0.0543 -0.38195,-0.48782 -0.84904,-0.96325 l -0.84956,-0.86455 0.52709,-0.061 c 1.01137,-0.11738 2.89252,-1.05168 3.85713,-1.91564 l 0.45734,-0.4098 -0.26768,-0.13849 c -0.44908,-0.23223 -1.64703,-0.59166 -2.43706,-0.7307 -0.41149,-0.0724 -0.76325,-0.13171 -0.78135,-0.13178 -0.0181,-6e-5 0.14576,-0.20915 0.36432,-0.46509 0.62064,-0.72678 1.11773,-1.55232 1.31103,-2.17816 0.1759,-0.56937 0.26343,-1.81843 0.13642,-1.9451 -0.036,-0.0359 -0.35941,-0.0592 -0.71882,-0.0512 -1.12619,0.0236 -2.25424,0.51593 -3.33778,1.45728 l -0.50539,0.43925 -0.0553,-0.33487 c -0.12526,-0.75842 -0.51815,-2.22064 -0.7183,-2.67322 z" />
  </g>
</svg>
